<svg width="408" height="387" viewBox="0 0 408 387" fill="none" xmlns="http://www.w3.org/2000/svg">
<path d="M368.451 29.5376L372.164 20.3251L370.321 10.568L379.533 14.2818L389.29 12.4381L385.577 21.6505L387.42 31.4077L378.208 27.6939L368.451 29.5376Z" fill="#FF5940"/>
<path d="M387.043 122.889L390.757 113.677L388.913 103.92L398.126 107.634L407.883 105.79L404.169 115.002L406.013 124.76L396.8 121.046L387.043 122.889Z" fill="white"/>
<path d="M77.2562 387L68.3872 382.528L58.5061 383.544L62.9782 374.676L61.9618 364.794L70.8306 369.266L80.7118 368.25L76.2398 377.119L77.2562 387Z" fill="#00BA6D"/>
<path d="M319.069 9.85475C321.79 9.85475 323.996 7.64869 323.996 4.92738C323.996 2.20606 321.79 0 319.069 0C316.348 0 314.142 2.20606 314.142 4.92738C314.142 7.64869 316.348 9.85475 319.069 9.85475Z" fill="white"/>
<path d="M128.932 385.754C131.653 385.754 133.859 383.548 133.859 380.827C133.859 378.105 131.653 375.899 128.932 375.899C126.211 375.899 124.005 378.105 124.005 380.827C124.005 383.548 126.211 385.754 128.932 385.754Z" fill="white"/>
<path d="M4.92738 314.203C7.64869 314.203 9.85475 311.997 9.85475 309.276C9.85475 306.555 7.64869 304.349 4.92738 304.349C2.20606 304.349 0 306.555 0 309.276C0 311.997 2.20606 314.203 4.92738 314.203Z" fill="#F27DF9"/>
</svg>
